<?xml version="1.0" encoding="UTF-8"?><svg id="Layer_1" xmlns="http://www.w3.org/2000/svg" viewBox="0 0 1383.4 973.9"><defs><style>.cls-1{fill:#fff;}</style></defs><path class="cls-1" d="M1382,584.8c1.9,0,1.9-3,0-3s-1.9,3,0,3h0Z"/><path d="M569.9,921.5c-13.5-12.4-32.8-16.8-47.2-28.2-15.2-12-23.5-30.4-31.7-47.9-30.1-64.6-65.2-126.6-100.3-188.6-6.8-12.1-13.8-24.3-23.2-34.5-6.8-7.4-14.8-13.6-21.4-21.1-18-20.3-24.5-48-30.4-74.4-7.2-32.3-14.5-65-13.7-98.1.9-33.1,10.7-67.1,33.7-91,25.6-26.6,64.7-38.2,87-67.6,16-21,21.1-48.5,35.6-70.6,12.6-19.2,31.7-33.3,51.8-44.2,20.4-11.1,46.2-25.8,43.3-48.9-2.1-16.8-21.5-27.9-38.1-24.3-16.6,3.6-28.9,18.7-33.1,35.1-2.7,10.6-2.5,21.9-6,32.3-2.6,7.8-7.1,14.7-11.6,21.5-25.5,38.9-51.1,77.8-76.6,116.7-26.7,3.2-52.7,12.7-75,27.6-8.5,5.7-17.8,12.5-27.9,10.9-15.2-2.3-21.3-21.5-19.9-36.9,1.4-15.4,6.8-31.3,1.3-45.7-7.8-20.8-38.3-27.2-55.6-13.3-17.3,13.9-19.1,42.2-5.9,60.1,5.6,7.6,13.8,16.7,9.1,24.8-8.7-5.8-20.4-5.6-30-1.5-12.2,5.1-21.9,16.5-23.9,29.6-1.6,10.1,1.2,20.3,3.9,30.2,15.9,57.3,31.7,114.6,47.6,171.9l-4.2,1.4c10,13.6,7.9,32.7,2,48.5-1.9,5-4.1,9.9-6.4,14.7-4.1,17.6-10.3,35-9.5,53.2,0,1.1-.2,2-.6,2.7,3.2,20.8,1.7,42.4-3.6,62.7-.5,2-1.8,3-3.3,3.4-.7,1.7-1.7,3.3-3,4.7-.1.4-.2.9-.3,1.3-.4,1.8-1.6,2.8-2.9,3.3-.7,1-1.5,2-2.3,2.9.3,1.8-.3,3.7-2.4,4.8-4.5,2.3-9.9,2.5-14.9,2.5-6.9,0-13.8-.7-20.7-1.5-5.4-.7-10.9-1.4-16.5-2.2-5.8-.4-11.3-1.5-16.7-3.5-7.1-1.8-14.1-4.1-20.8-6.5-8.4-3-17.5-6.6-21.4-14.6-1.6-3.4-2.3-7.4-5.2-9.8-5.9-4.8-14.4,1.5-18.9,7.6-22.2,29.9-34.4,67.2-34.1,104.5,12.4,3.5,24.5.1,36.4-5.5-.8-17.5,18.7-28.2,35.5-24.6.8-1.3,2.1-2.3,4.1-2.3,5.2,0,10.3,0,15.4.5,21.7-6.3,44.9-7.5,67.1-3.2,14.5.7,28.9,3.6,43.4,5,9.1-5.5,14.6-17.7,16.1-28.9,2.1-14.6.6-30.3,7.6-43.2,6.4-11.8,19-19.4,25-31.4,4.6-9,5.2-20.1,11.5-28,13-16.5,39.6-9.1,57.2,2.5,55.9,36.7,90.2,97.8,122.3,156.6,8.3,15.2,16.8,30.9,18.7,48.1,1.4,12.6-.7,26.1,4.8,37.6,3.8,7.9,10.7,13.8,17.7,19.2,16.9,13.1,35.1,24.6,54.2,34.3,7.9,4,16.9,7.8,25.3,5.1,17.5-5.6,15.1-33.1,1.6-45.5Z"/><path d="M574.1,917.2c-15.3-13.6-36.6-17.8-51.4-31.8s-23.2-36.3-32.2-55.2c-21.2-44.3-44.6-87.5-68.5-130.3-11.7-20.9-22.9-42.4-35.7-62.6s-12.7-17.9-20.7-25.5-16-14.6-22-23.9c-11.3-17.4-16.4-37.9-21-57.9-5.5-24.1-11.1-48.4-13.5-73.1-3.9-41.6,2.4-87.8,34-118s68.1-38.3,89.4-72.4,16.5-38.4,26.7-56.7c10.2-18.5,26.1-32.4,44-43.4,15.8-9.7,33.9-17.1,46.2-31.4s14.3-31.3,2.9-45.3-30.9-17.5-46.7-10.4c-18.4,8.3-28.1,27.2-30.9,46.4s-3.3,23-9.5,33.6c-6.2,10.5-13.2,20.4-19.9,30.6-13.9,21.1-27.7,42.2-41.6,63.4-6.9,10.6-13.9,21.1-20.8,31.7l5.2-3c-29.2,3.6-56.3,14-80.8,30.3s-22,13.8-30.4,2.5c-6.9-9.2-6.3-21.7-4.7-32.4,2.1-14.1,5.2-28.9-.9-42.5s-12.7-16.2-22.3-19.8c-20.3-7.5-43.6.7-53.3,20.4s-6.7,24.7-3.5,37,4.4,11.9,8.1,17,11.5,12.4,8.7,18.2l8.2-2.2c-14.2-8.8-32.7-5.8-45.5,4.1s-19.6,26.9-17.2,44,4.8,20.3,7.6,30.2,5.5,19.7,8.2,29.6c5.6,20.1,11.1,40.1,16.7,60.2,6.3,22.9,12.7,45.8,19,68.8l4.2-7.4-4.2,1.4c-3.4,1.1-5.9,5.5-3.6,8.8,8.5,12.2,6.9,27.5,2.4,41s-6.7,15-8.7,23.1-4.6,16.9-6.2,25.5-1.6,16.7-2.5,24.9.6,7.9,1,11.7.5,8.7.5,13c0,8.8-.8,17.5-2.4,26.2s-.8,4.3-1.3,6.4-.4,1.8-.6,2.7-1.4,3.8-.2,2.3-.7,0-1,.2c-.7.4-1.2.9-1.7,1.5-1.1,1.4-2,3.2-3,4.7s-1.6,3.1-1.5,3c-1,1.3-2.5,2.4-3.5,3.9s-1.8,4.4-1.5,4c.7-.8-1.2.4-1.4.4-1.4.4-2.8.7-4.3.8-8.5.8-17.3-.2-25.7-1.2s-16.9-1.7-25.1-3.5-16.1-4.5-23.9-7.2-12.9-4-17.9-8.2c-5.3-4.3-5.3-11.7-10.3-16.2-12.8-11.5-26.8,6.2-33.2,15.8C10.3,754.4,0,789.8,0,825.3c0,2.6,1.9,5.1,4.4,5.8,14.3,3.7,27.9,0,41-6.1,1.8-.9,3-3.2,3-5.2-.2-14.2,15.5-21.2,27.9-18.8,2.9.6,5.1-.5,6.8-2.8l-1.1.7c1.3,0,2.6,0,3.9,0,1.9,0,3.9,0,5.8.1,4,.2,7,.2,10.9-.8,7.8-2,15.7-3.4,23.7-4.1,15.5-1.2,30.5,1.2,45.9,2.6s15.3,1.9,22.9,2.9,7.4,1.2,11,1.4,6.5-1.4,9.5-4c9.7-8.5,13.6-21.6,14.9-34s.4-28.7,8.7-40.6,17.9-17.4,23.3-29c4.8-10.3,5.1-25.2,16.4-30.9,9.6-4.9,21.9-1.7,31.2,2.3,11.5,4.9,21.9,12.9,31.5,20.9,10.1,8.5,19.5,17.9,28.3,27.8,17.7,20.2,32.6,42.7,46.4,65.8,6.9,11.6,13.5,23.4,20,35.2s14.7,25.3,19.6,39c2.5,6.7,4.2,13.7,4.7,20.9.5,7.6.2,15.1,1.2,22.7,1.9,14.7,10.1,24.9,21.4,33.9,13.3,10.5,27.4,20,42.2,28.4s29.9,18.8,45.5,13.2c23.3-8.5,17.6-41.4,3.2-55.2-5.6-5.3-14.1,3.1-8.5,8.5,6.3,6.1,10.1,15.6,8.9,24.4-1.5,11.7-12,13.4-21.8,9.7-14.1-5.3-27.5-14.2-40-22.4s-24.7-15.4-33-26.3c-9.1-12-5.8-28-7.6-41.9-1.8-14.2-7.6-27.3-14.2-39.9-12.4-23.7-25.6-47.2-39.8-69.9-13.9-22.1-29.3-43.6-47.3-62.6-16.7-17.6-36.9-36-60.1-44.6s-22-5.8-32.6-2.3c-11.7,3.8-18.1,13.2-21.8,24.4s-3.2,11.8-6.4,17-7.5,9.3-11.6,13.6c-9.6,10-15.9,20.3-17.9,34.3-2.1,14.3-.4,29.8-8.1,42.7s-4,6.9-6.5,7.4c.6-.1-3.9-.7-3.8-.7-2.6-.3-5.2-.7-7.8-1-8.7-1.2-17.4-2.4-26.1-3.2s-15.8-2.2-23.8-2.6c-8.6-.4-17.1,0-25.6,1.1-8.3,1.1-17,4.4-25.3,4.2-7.8-.2-15.7-1.9-20.9,5l6.8-2.8c-19.9-3.8-43.5,7.9-43.1,30.4l3-5.2c-10.1,4.7-20.7,7.8-31.7,4.9l4.4,5.8c0-18.2,2.8-36.1,8.4-53.4,5.5-16.9,13.7-34.9,25.3-48.6,1.6-1.9,5.5-6.4,8.5-5.9s4,6.9,5.2,9.1c3.7,6.8,10.4,11,17.3,13.9s16.8,6.3,25.5,8.6c9.2,2.5,18,4.1,27.5,5.4,11,1.5,55.5,10.7,53.9-10.4l-1.8,4.2c1.9-2.2,4.2-3.4,5.7-6.2-.1.2,1.4-3.5.7-2.3.9-1.7,2.2-3.1,3.1-4.8l-3.6,2.8c8.3-3.1,8.9-12.5,10.3-20.3s2.6-18.3,2.7-27.5-1.5-17.7-1.2-25.3.8-17.7,2.8-26.7,3.7-18.1,6.7-26.6,6.9-15.2,9-23.4c3.8-14.8,3.6-31.3-5.4-44.2l-3.6,8.8,4.2-1.4c3.1-1,5.1-4.1,4.2-7.4-9.9-35.7-19.8-71.3-29.6-107s-9.9-35.7-14.8-53.5c-4.3-15.6-12-34-3.2-49.3s26.8-22.5,41.3-13.6,6.8.7,8.2-2.2c6.5-13.1-4-22.8-10.6-33.1-5.9-9.1-7.8-20.7-5.4-31.2s8.5-19.2,18.4-23,19.2-2.6,27.4,1.9c25.2,13.7,7.6,46.2,10.4,68.1,1.4,10.5,5.7,21.4,14.8,27.5s24.3,3.1,34.8-3.4,24.3-15.6,38.1-20.9,13.2-4.7,20-6.5,6.8-1.6,10.3-2.3,8.5-.6,12.1-1.9,5-4.9,6.9-7.8,4.4-6.7,6.6-10c4.7-7.2,9.5-14.5,14.2-21.7,9.1-13.9,18.2-27.8,27.4-41.7s18.2-27.5,27.1-41.3c3.8-5.8,7.3-11.8,9.7-18.4,2.8-7.4,3.5-15.4,4.6-23.2,1.8-13,5.8-25.2,15.9-34.1s20.1-10.4,30.8-5.9c9.6,4,16.5,13.4,14.6,24-1.9,10.6-11.3,18.4-19.7,24.2s-21.4,12.3-31.9,18.8-22.5,15.6-31.6,25.7c-9.3,10.2-16.2,21.9-21.8,34.5s-10.2,25.6-16.8,37.7c-12.6,23.1-34.1,36.4-55.8,50-21.9,13.7-42.3,28.8-55.2,51.8-13.3,23.7-18.6,51.2-18.5,78.2s7.2,64.1,14.3,95.4c5.9,26.2,12.8,53.3,30.6,74.2s21.6,19.8,30.2,31.9c8.7,12.2,15.7,25.7,23,38.8,15.8,27.9,31.5,55.9,46.7,84.2,15.2,28.3,29.8,56.8,43.4,85.9,5.8,12.4,11.3,25.1,19.2,36.3,7.8,11,17.6,19.4,29.5,25.7s23.2,10.4,32.7,18.8,14.3-3.3,8.5-8.5Z"/><path d="M339.8,348.7c15-10.1,29.8-20.4,44.4-30.9s29-19.7,41.5-31.6c12.2-11.6,18.3-27.3,25.3-42.2,7.7-16.5,15.4-32.9,23.2-49.4,3.2-6.9-7-12.9-10.3-6-7.4,15.9-14.9,31.7-22.3,47.6-6.8,14.4-12.5,30.3-24.3,41.5s-27,21.1-40.7,30.9-28.4,20.1-42.8,29.8-.4,14.6,6,10.3h0Z"/><path d="M496.4,180.5c9.1-6.6,18.1-13.2,27.1-19.9s17-12.1,24.6-19.2,12.8-14.3,15.2-23.4,1.8-9.2.7-13.6-4.6-6.6-6.8-10.3-3.5-7.9-6.3-11.4-5.7-6-9.2-8.2c-7.2-4.6-16-6.7-24.5-6.1-18.1,1.3-34.4,12.8-43.6,28.2-9.6,16.1-11.5,35.6-4,52.8s13.3,1,10.3-6c-10.9-24.9,6.7-56,32.4-62.2s27.3,2.9,33.3,16.1c1.5,3.3,3.3,5.6,5.6,8.3s1.5,6.8.5,10.2c-2.2,7.5-7.5,13.5-13.2,18.6-14.8,13.2-31.9,24.4-47.9,36s-.2,14.8,6,10.3h0Z"/><path d="M477.9,190.3c.5-2.5,1.6-4.1,3.8-5.4l-8.1-8.1c-1.4,1.8-2.8,3.7-4.2,5.5-3.1,4.1,2.1,10.4,6.7,8.7,6.9-2.5,13-6.2,18.2-11.5s-3-13.9-8.4-8.4c-3.7,3.8-8,6.6-12.9,8.4l6.7,8.7c1.4-1.8,2.8-3.7,4.2-5.5,3.8-4.9-3.4-11-8.1-8.1s-8.1,7.2-9.2,12.6c-1.6,7.5,9.9,10.7,11.5,3.2h0Z"/><path d="M420.5,715.4c3.4,3.4,6.8,6.8,10.2,10.2s6,5.5,7.3,9.2.9,7.7.9,11.5.3,8.8,1.7,13c2.5,7.2,14,4.1,11.5-3.2s.4-18.6-3.8-27.4-12.9-15.2-19.4-21.8c-5.4-5.4-13.8,3-8.4,8.4h0Z"/><path d="M233.4,747.2c-.2-12.1,2.9-23.5,9.4-33.8h-10.3c1.8,2.6-1,6.7-2.1,9.2-2,4.4-4,8.8-6,13.2-3.9,8.5-7.7,17-11.6,25.6s7.1,13,10.3,6c4.9-10.9,9.9-21.7,14.8-32.6,3.6-8,10.9-18.9,4.9-27.4s-7.8-4-10.3,0c-7.5,11.9-11.3,25.7-11,39.8s12.1,7.7,11.9,0h0Z"/><path d="M275.6,282.3c5.9-5.2,4.5-16.4-2.8-19.6s-6.4-.9-8.1,2.1-.8,6.9,2.1,8.1c.2,0,.4.2.6.3.3.2.3.1,0,0-.4-.3-.3-.3,0,.1l-.4-.5c.1.2.6,1.3.3.5s0,.6.1.6c-.1-.4-.1-1,0-.2,0,1.3.2-.7,0,0s.5-1,0,0c.4-.8.3-.3-.3.2-2.4,2.1-2.2,6.2,0,8.4s6,2.1,8.4,0h0Z"/><path d="M111.4,115.4c15.4-13.8,38.5-15.1,58.1-16.3,22.2-1.4,44.8-.7,66.2,5.8s21.2,6.1,25,14.8-18,12.6-22.7,13.7c-10.8,2.6-22,3.4-33.1,3.8-10.9.4-21.7.8-32.6.6s-24.7-1.2-36.6-4.4-30.3-8.1-25.3-18.9-7.1-13-10.3-6c-5.9,12.7,2.7,23.9,14,29.5s24.9,8.9,38,10.4,27,1.4,40.6,1c13.4-.4,26.8-.7,40.1-2.9s27.3-5.6,36-14.5c9.2-9.5,2.3-21.6-6.6-28.2s-23.3-11-35.4-13.5-27.2-3.8-40.9-3.7-30,1.1-44.7,3.6c-14,2.4-27.4,7.2-38.1,16.8s2.7,13.5,8.4,8.4h0Z"/><path d="M107.7,141.5c25.2,27.8,41.7,63.2,46.4,100.4.4,3.2,2.4,6,6,6,25.7,0,51.3.4,77,1.4s7.1-4,5.7-7.5c-13.7-35.8,7.5-71.1,25.9-100.7s-6.2-12.5-10.3-6c-20.1,32.3-42,71-27.1,109.9l5.7-7.5c-25.6-1-51.3-1.4-77-1.4l6,6c-5.1-40.6-22.4-78.6-49.9-108.9-5.2-5.7-13.6,2.8-8.4,8.4h0Z"/><path d="M183.6,136.7c3.1-14.5,4.1-29.4,2.5-44.2s-2-14.6-3.9-21.8-5.4-13.6-6.9-20.6,0-5,3.2-6.1,7.2-1.8,10.8-2.6c8.4-1.9,16.8-3.9,25.3-5.8,16.2-3.7,32.4-7.4,48.6-11.1s36.9-8.5,55.4-12.7l-7.3-4.2c12.3,40.3,18.1,82.2,17.2,124.4l6-6c-24,.4-47.8,3.8-70.9,10.3s-4.2,13.6,3.2,11.5c22.1-6.2,44.8-9.6,67.7-9.9s5.9-2.7,6-6c.9-43.1-5.1-86.3-17.7-127.5-1-3.2-4.1-4.9-7.3-4.2-34.6,8-69.3,15.9-103.9,23.9s-16.8,3.9-25.3,5.8-14.3,2.4-19.2,7.5-4.3,13.3-1.9,19.8,5.2,14.4,6.9,21.9c4,17.9,4,36.5.1,54.5s9.9,10.7,11.5,3.2h0Z"/></svg>